<?xml version="1.0" encoding="iso-8859-1"?>
<!-- Generator: Adobe Illustrator 18.0.0, SVG Export Plug-In . SVG Version: 6.00 Build 0)  -->
<!DOCTYPE svg PUBLIC "-//W3C//DTD SVG 1.1//EN" "http://www.w3.org/Graphics/SVG/1.1/DTD/svg11.dtd">
<svg version="1.1" id="Capa_1" xmlns="http://www.w3.org/2000/svg" xmlns:xlink="http://www.w3.org/1999/xlink" x="0px" y="0px"
	fill="#555555" viewBox="0 0 298 298" style="enable-background:new 0 0 298 298;" xml:space="preserve">
<path d="M186.5,0h-108c-11.046,0-20,8.954-20,20v76v36v126h-3c-11.046,0-20,8.954-20,20s8.954,20,20,20h46c11.046,0,20-8.954,20-20
	s-8.954-20-20-20h-3V152h88c41.906,0,76-34.094,76-76C262.5,34.094,228.406,0,186.5,0z M186.5,112h-88V96V40h88
	c19.851,0,36,16.15,36,36C222.5,95.851,206.351,112,186.5,112z"/>
<g>
</g>
<g>
</g>
<g>
</g>
<g>
</g>
<g>
</g>
<g>
</g>
<g>
</g>
<g>
</g>
<g>
</g>
<g>
</g>
<g>
</g>
<g>
</g>
<g>
</g>
<g>
</g>
<g>
</g>
</svg>
